<svg xmlns="http://www.w3.org/2000/svg" width="404.564" height="138.98" viewBox="0 0 404.564 138.98">
  <g id="Group_107" data-name="Group 107" transform="translate(-1076.509 -811.48)">
    <path id="Path_2169" data-name="Path 2169" d="M63.221-4.54q-9.98,5.759-24.533,5.759-16.267,0-25.676-9.145T3.6-32.942q0-16.091,10.354-26.182t27.281-10.09a53.686,53.686,0,0,1,19.037,3.078v13.761q-7.914-4.616-19.345-4.616-9.848,0-15.96,6.419T18.86-33.646q0,10.684,5.518,16.663T39.436-11a21.2,21.2,0,0,0,9.277-1.759V-26.743H34.951V-38.394h28.27Zm43.13-31.172a12.4,12.4,0,0,0-6.287-1.5,9.164,9.164,0,0,0-7.672,3.693q-2.836,3.693-2.836,10.156V.032h-14.2V-48.594h14.2v9.145h.176q3.517-9.98,12.794-9.98a9.993,9.993,0,0,1,3.825.572Zm4.265,11.651q0-12,7.188-18.861t19.323-6.859q11.739,0,18.641,6.749t6.9,18.136q0,11.959-7.078,19.037T136.424,1.219q-11.871,0-18.839-6.793T110.616-24.061Zm14.377-.176q0,14.553,11.871,14.553,11.387,0,11.387-14.948,0-14.245-11.475-14.245a10.549,10.549,0,0,0-8.683,3.825q-3.1,3.824-3.1,10.815Zm117.08-24.357L228,.032H213.1l-7.474-29.193a25.909,25.909,0,0,1-.791-6.023h-.308a36.635,36.635,0,0,1-.923,5.847L195.557.032H180.829L166.98-48.594h14.509l7.078,32.271a38.859,38.859,0,0,1,.7,5.32h.308a28.31,28.31,0,0,1,.835-5.5L199.115-48.6h13.453l7.782,32.315a47.386,47.386,0,0,1,.659,5.364h.352a38.259,38.259,0,0,1,.747-5.364L228.879-48.6Z" transform="translate(1239 916.967)" fill="#fff"/>
    <g id="Group_115" data-name="Group 115" transform="translate(351.609 233.24)">
      <path id="Path_2175" data-name="Path 2175" d="M794.39,578.24a69.49,69.49,0,1,0,69.49,69.49A69.49,69.49,0,0,0,794.39,578.24Z" fill="#fff"/>
      <path id="Path_2176" data-name="Path 2176" d="M914.622,656.857l-1.309-1.28-1.28,1.309c-1.142,1.168-27.98,28.875-27.98,52.536a29.325,29.325,0,0,0,27.459,29.23V752.9a1.83,1.83,0,1,0,3.66,0V738.651a29.325,29.325,0,0,0,27.459-29.23C942.63,684.53,915.764,657.975,914.622,656.857Zm17.149,28.776-16.6,16.815V688.084L926.313,676.8a102.982,102.982,0,0,1,5.458,8.833Zm6.073,15.036-22.674,22.97V707.66l18.364-18.6a58.6,58.6,0,0,1,4.309,11.609Zm-44.452-11.584,18.12,18.12v15.874l-22.5-22.5c-.015-.015-.031-.028-.046-.042a60.942,60.942,0,0,1,4.425-11.452Zm7.242-12.207,10.878,10.878v14.272l-16.336-16.336c1.706-3.092,3.573-6.055,5.457-8.814Zm2.138-3.039c3.317-4.582,6.5-8.4,8.74-10.95v19.69Zm12.4,9.034V662.758a137.589,137.589,0,0,1,8.99,11.007Zm-27.457,26.549a31.219,31.219,0,0,1,.356-4.607L911.35,728.1a1.835,1.835,0,0,0,.161.94v5.948a25.662,25.662,0,0,1-23.8-25.566Zm27.457,25.562v-5.37a1.883,1.883,0,0,0,.151-.135,1.823,1.823,0,0,0,.534-1.325l22.813-23.112a33.579,33.579,0,0,1,.3,4.378,25.659,25.659,0,0,1-23.8,25.564Z" transform="matrix(0.755, -0.656, 0.656, 0.755, -357.538, 714.371)" fill="#396bff"/>
    </g>
  </g>
</svg>
