<svg xmlns="http://www.w3.org/2000/svg" width="138.98" height="138.98" viewBox="0 0 138.98 138.98">
  <g id="Group_115" data-name="Group 115" transform="translate(-724.9 -578.24)">
    <path id="Path_2175" data-name="Path 2175" d="M794.39,578.24a69.49,69.49,0,1,0,69.49,69.49A69.49,69.49,0,0,0,794.39,578.24Z" fill="#396bff"/>
    <g id="Group_1" data-name="Group 1" transform="translate(497.959 541.591)">
      <path id="Path_3" data-name="Path 3" d="M316.653,131.3,265.247,81.52c-1.762-1.706-5.306-.739-5.306,1.448V125.7a5.607,5.607,0,0,0,5.608,5.608h51.1Z" fill="#fff"/>
      <path id="Path_4" data-name="Path 4" d="M273.934,131.3,325.34,81.52c1.762-1.706,5.306-.739,5.306,1.448V125.7a5.607,5.607,0,0,1-5.608,5.608h-51.1Z" transform="translate(1.3)" fill="#a0b8ff"/>
    </g>
  </g>
</svg>
