<svg xmlns="http://www.w3.org/2000/svg" width="598.61" height="138.98" viewBox="0 0 598.61 138.98">
  <g id="Group_107" data-name="Group 107" transform="translate(-1076.509 -811.48)">
    <g id="Group_115" data-name="Group 115" transform="translate(351.609 233.24)">
      <path id="Path_2175" data-name="Path 2175" d="M794.39,578.24a69.49,69.49,0,1,0,69.49,69.49A69.49,69.49,0,0,0,794.39,578.24Z" fill="#396bff"/>
      <g id="Group_1" data-name="Group 1" transform="translate(497.959 541.591)">
        <path id="Path_3" data-name="Path 3" d="M316.653,131.3,265.247,81.52c-1.762-1.706-5.306-.739-5.306,1.448V125.7a5.607,5.607,0,0,0,5.609,5.608h51.1Z" fill="#fff"/>
        <path id="Path_4" data-name="Path 4" d="M273.934,131.3,325.34,81.52c1.762-1.706,5.306-.739,5.306,1.448V125.7a5.607,5.607,0,0,1-5.609,5.608h-51.1Z" transform="translate(1.3)" fill="#a0b8ff"/>
      </g>
    </g>
    <path id="Path_1" data-name="Path 1" d="M80.055-65.565V0H66.645V-37.71q0-1.3.067-2.835t.247-3.1L49.545-9.945A5.723,5.723,0,0,1,47.362-7.56a6.036,6.036,0,0,1-3.127.81h-2.07a6.036,6.036,0,0,1-3.127-.81,5.723,5.723,0,0,1-2.182-2.385L19.44-43.74q.135,1.62.225,3.173t.09,2.857V0H6.345V-65.565h11.61q.99,0,1.733.045a4.434,4.434,0,0,1,1.327.27,3.021,3.021,0,0,1,1.058.7A5.5,5.5,0,0,1,23-63.225L39.87-29.97q.9,1.71,1.732,3.555t1.6,3.78q.765-1.98,1.6-3.87t1.778-3.6l16.83-33.12a5.5,5.5,0,0,1,.923-1.328,3.021,3.021,0,0,1,1.057-.7,4.434,4.434,0,0,1,1.327-.27q.742-.045,1.732-.045Zm31.185,18.18a26.951,26.951,0,0,1,9.675,1.665,21.219,21.219,0,0,1,7.492,4.77,21.487,21.487,0,0,1,4.86,7.538A27.193,27.193,0,0,1,135-23.445a27.685,27.685,0,0,1-1.732,10.058,21.637,21.637,0,0,1-4.86,7.605,21.322,21.322,0,0,1-7.492,4.815A26.629,26.629,0,0,1,111.24.72,26.941,26.941,0,0,1,101.5-.968a21.741,21.741,0,0,1-7.56-4.815,21.322,21.322,0,0,1-4.905-7.605A27.685,27.685,0,0,1,87.3-23.445a27.192,27.192,0,0,1,1.732-9.967,21.175,21.175,0,0,1,4.905-7.538,21.638,21.638,0,0,1,7.56-4.77A27.268,27.268,0,0,1,111.24-47.385Zm0,37.755q4.815,0,7.088-3.4T120.6-23.355q0-6.93-2.272-10.3t-7.088-3.375q-4.95,0-7.245,3.375t-2.3,10.3q0,6.93,2.3,10.328T111.24-9.63Zm59.085-24.525a8.818,8.818,0,0,0-3.42-2.452,10.852,10.852,0,0,0-3.87-.7,8.22,8.22,0,0,0-3.555.765,7.244,7.244,0,0,0-2.812,2.452A13.061,13.061,0,0,0,154.8-29.7a27.257,27.257,0,0,0-.675,6.525,30.224,30.224,0,0,0,.54,6.21,12.793,12.793,0,0,0,1.508,4.073,5.852,5.852,0,0,0,2.318,2.227,6.647,6.647,0,0,0,3.015.675,12.054,12.054,0,0,0,2.768-.292,9.729,9.729,0,0,0,2.272-.833,9.434,9.434,0,0,0,1.958-1.372,18.661,18.661,0,0,0,1.822-1.913Zm13.95-33.21V0h-8.64a3.28,3.28,0,0,1-3.42-2.34L171.135-5.9a27.355,27.355,0,0,1-2.925,2.7A18.4,18.4,0,0,1,164.9-1.1a17.493,17.493,0,0,1-3.825,1.35,19.693,19.693,0,0,1-4.432.473A14.373,14.373,0,0,1,149.9-.9a15.555,15.555,0,0,1-5.355-4.68,23.616,23.616,0,0,1-3.533-7.492,36.388,36.388,0,0,1-1.283-10.1,31.509,31.509,0,0,1,1.44-9.7,23.775,23.775,0,0,1,4.073-7.74,18.911,18.911,0,0,1,6.322-5.107,17.955,17.955,0,0,1,8.145-1.845,15.9,15.9,0,0,1,6.12,1.035,16.615,16.615,0,0,1,4.5,2.79V-67.365Zm38.475,38.43a12.313,12.313,0,0,0-.428-3.24,7.855,7.855,0,0,0-1.395-2.812,7.1,7.1,0,0,0-2.543-2,8.7,8.7,0,0,0-3.825-.765,8.345,8.345,0,0,0-6.21,2.272,11.84,11.84,0,0,0-2.97,6.548Zm-17.55,8.1q.675,5.85,3.555,8.483A10.577,10.577,0,0,0,216.18-9.72a13.291,13.291,0,0,0,4.185-.585,21.112,21.112,0,0,0,3.128-1.305q1.372-.72,2.52-1.3a5.232,5.232,0,0,1,2.408-.585,2.884,2.884,0,0,1,2.52,1.215l4.05,4.995a20.736,20.736,0,0,1-4.658,4.027,24.2,24.2,0,0,1-5.13,2.43A27.806,27.806,0,0,1,219.938.383,39.51,39.51,0,0,1,214.92.72a26.2,26.2,0,0,1-9.2-1.6A21.146,21.146,0,0,1,198.2-5.625a22.4,22.4,0,0,1-5.085-7.83,29.256,29.256,0,0,1-1.868-10.89,24.645,24.645,0,0,1,1.6-8.865,21.834,21.834,0,0,1,4.59-7.335,21.854,21.854,0,0,1,7.245-5,23.912,23.912,0,0,1,9.607-1.845,24.028,24.028,0,0,1,8.483,1.44,18.44,18.44,0,0,1,6.615,4.185,19.1,19.1,0,0,1,4.32,6.728,24.687,24.687,0,0,1,1.552,9.023,19.7,19.7,0,0,1-.135,2.565,4.06,4.06,0,0,1-.495,1.575,1.884,1.884,0,0,1-.967.81,4.532,4.532,0,0,1-1.553.225Zm50.085-18.63a19.62,19.62,0,0,1,4.973-5.94,10.313,10.313,0,0,1,6.458-2.16,8.326,8.326,0,0,1,5.13,1.485l-.9,10.26a2.155,2.155,0,0,1-.742,1.35,2.448,2.448,0,0,1-1.418.36q-.36,0-.945-.045t-1.215-.112l-1.283-.135a11.666,11.666,0,0,0-1.192-.068,7.08,7.08,0,0,0-4.883,1.62,12.741,12.741,0,0,0-3.083,4.5V0h-13.95V-46.665h8.28a7.06,7.06,0,0,1,1.732.18,3.039,3.039,0,0,1,1.17.562,2.4,2.4,0,0,1,.72,1.013,9.13,9.13,0,0,1,.427,1.53Zm34.155-2.16a33.893,33.893,0,0,1,2.79-2.34,16.339,16.339,0,0,1,3.082-1.822,18.3,18.3,0,0,1,3.555-1.17,19.077,19.077,0,0,1,4.163-.428,16.337,16.337,0,0,1,6.772,1.328,14.055,14.055,0,0,1,4.973,3.69,15.927,15.927,0,0,1,3.06,5.625,23.325,23.325,0,0,1,1.035,7.088V0H304.92V-29.655a8.16,8.16,0,0,0-1.575-5.333A5.657,5.657,0,0,0,298.71-36.9a9.749,9.749,0,0,0-4.3.967A17.294,17.294,0,0,0,290.52-33.3V0H276.57V-46.665h8.64a3.28,3.28,0,0,1,3.42,2.34Zm52.7-5.04V0h-13.95V-46.665Zm1.44-12.78a7.373,7.373,0,0,1-.675,3.128,8.232,8.232,0,0,1-1.845,2.565A9.032,9.032,0,0,1,338.333-52a8.449,8.449,0,0,1-3.307.653,7.854,7.854,0,0,1-3.2-.653,8.982,8.982,0,0,1-2.633-1.755,8.1,8.1,0,0,1-1.8-2.565,7.588,7.588,0,0,1-.652-3.128,7.854,7.854,0,0,1,.652-3.195,8.291,8.291,0,0,1,1.8-2.61,8.43,8.43,0,0,1,2.633-1.755,8.1,8.1,0,0,1,3.2-.63,8.711,8.711,0,0,1,3.307.63,8.494,8.494,0,0,1,2.723,1.755,8.423,8.423,0,0,1,1.845,2.61A7.63,7.63,0,0,1,343.575-59.445Zm43.02,18.36a8.043,8.043,0,0,1-.495,2.79,6.323,6.323,0,0,1-1.305,2.2L365.31-10.35h20.835V0h-36.9V-5.67a6.923,6.923,0,0,1,.45-2.16,8.1,8.1,0,0,1,1.35-2.43L370.71-36.315H350.505v-10.35H386.6ZM422.1-28.935a12.313,12.313,0,0,0-.427-3.24,7.855,7.855,0,0,0-1.4-2.812,7.1,7.1,0,0,0-2.542-2,8.7,8.7,0,0,0-3.825-.765,8.345,8.345,0,0,0-6.21,2.272,11.84,11.84,0,0,0-2.97,6.548Zm-17.55,8.1q.675,5.85,3.555,8.483A10.577,10.577,0,0,0,415.53-9.72a13.291,13.291,0,0,0,4.185-.585,21.112,21.112,0,0,0,3.128-1.305q1.373-.72,2.52-1.3a5.232,5.232,0,0,1,2.408-.585,2.884,2.884,0,0,1,2.52,1.215l4.05,4.995a20.736,20.736,0,0,1-4.657,4.027,24.2,24.2,0,0,1-5.13,2.43A27.807,27.807,0,0,1,419.288.383,39.51,39.51,0,0,1,414.27.72a26.2,26.2,0,0,1-9.2-1.6,21.146,21.146,0,0,1-7.515-4.748,22.4,22.4,0,0,1-5.085-7.83,29.257,29.257,0,0,1-1.867-10.89,24.645,24.645,0,0,1,1.6-8.865,21.834,21.834,0,0,1,4.59-7.335,21.854,21.854,0,0,1,7.245-5,23.912,23.912,0,0,1,9.608-1.845,24.028,24.028,0,0,1,8.482,1.44,18.44,18.44,0,0,1,6.615,4.185,19.1,19.1,0,0,1,4.32,6.728,24.687,24.687,0,0,1,1.552,9.023,19.7,19.7,0,0,1-.135,2.565,4.06,4.06,0,0,1-.495,1.575,1.884,1.884,0,0,1-.967.81,4.532,4.532,0,0,1-1.552.225Z" transform="translate(1240.509 916.48)"/>
  </g>
</svg>
